{"title":"Calvin Harris &amp; Alesso Ft. Hurts - Under Control [Music Vide","uid":9145465,"size":91077726,"categoryP":"video","categoryS":"music_videos","magnet":"?xt=urn:btih:01ccf78f852bafe3d781d65b79e4f699d5749df0&amp;dn=Calvin+Harris+%26amp%3B+Alesso+Ft.+Hurts+-+Under+Control+%5BMusic+Vide&amp;tr=udp%3A%2F%2Ftracker.openbittorrent.com%3A80&amp;tr=udp%3A%2F%2Fopen.demonii.com%3A1337&amp;tr=udp%3A%2F%2Ftracker.coppersurfer.tk%3A6969&amp;tr=udp%3A%2F%2Fexodus.desync.com%3A6969","seeders":14,"leechers":0,"uploader":"Sbyky","files":1,"time":1383586314,"description":"[IMG]http://cdn.piczend.com/images/85PLddpX/1383445156_undercontrol.jpg[/IMG]\n\nGeneral\nComplete name                            : Calvin Harris &amp; Alesso Ft. Hurts - Under Control [Music Video] 1080p [Sbyky].MP4\nFormat                                   : MPEG-4\nFormat profile                           : Base Media\nCodec ID                                 : isom\nFile size                                : 86.9 MiB\nDuration                                 : 3mn 30s\nOverall bit rate mode                    : Variable\nOverall bit rate                         : 3 462 Kbps\nEncoded date                             : UTC 2013-10-21 05:15:53\nTagged date                              : UTC 2013-10-21 05:15:53\n\nVideo\nID                                       : 1\nFormat                                   : AVC\nFormat/Info                              : Advanced Video Codec\nFormat profile                           : &lt;a class=&quot;__cf_email__&quot; href=&quot;/cdn-cgi/l/email-protection&quot; data-cfemail=&quot;bbf3d2dcd3fbf78f958b&quot;&gt;[email&amp;#160;protected]&lt;/a&gt;&lt;script cf-hash='f9e31' type=&quot;text/javascript&quot;&gt;\n/* &lt;![CDATA[ */!function(){try{var t=&quot;currentScript&quot;in document?document.currentScript:function(){for(var t=document.getElementsByTagName(&quot;script&quot;),e=t.length;e--;)if(t[e].getAttribute(&quot;cf-hash&quot;))return t[e]}();if(t&amp;&amp;t.previousSibling){var e,r,n,i,c=t.previousSibling,a=c.getAttribute(&quot;data-cfemail&quot;);if(a){for(e=&quot;&quot;,r=parseInt(a.substr(0,2),16),n=2;a.length-n;n+=2)i=parseInt(a.substr(n,2),16)^r,e+=String.fromCharCode(i);e=document.createTextNode(e),c.parentNode.replaceChild(e,c)}}}catch(u){}}();/* ]]&gt; */&lt;/script&gt;\nFormat settings, CABAC                   : Yes\nFormat settings, ReFrames                : 2 frames\nCodec ID                                 : avc1\nCodec ID/Info                            : Advanced Video Coding\nDuration                                 : 3mn 30s\nBit rate                                 : 3 207 Kbps\nWidth                                    : 1 920 pixels\nHeight                                   : 1 080 pixels\nDisplay aspect ratio                     : 16:9\nFrame rate mode                          : Constant\nFrame rate                               : 23.976 fps\nColor space                              : YUV\nChroma subsampling                       : 4:2:0\nBit depth                                : 8 bits\nScan type                                : Progressive\nBits/(Pixel*Frame)                       : 0.065\nStream size                              : 80.4 MiB (93%)\nEncoded date                             : UTC 2013-10-21 05:15:53\nTagged date                              : UTC 2013-10-21 05:15:53\n\nAudio\nID                                       : 2\nFormat                                   : AAC\nFormat/Info                              : Advanced Audio Codec\nFormat profile                           : LC\nCodec ID                                 : 40\nDuration                                 : 3mn 30s\nBit rate mode                            : Variable\nBit rate                                 : 254 Kbps\nChannel(s)                               : 2 channels\nChannel positions                        : Front: L R\nSampling rate                            : 44.1 KHz\nCompression mode                         : Lossy\nDelay relative to video                  : -3s 754ms\nStream size                              : 6.36 MiB (7%)\nEncoded date                             : UTC 2013-10-21 05:15:07\nTagged date                              : UTC 2013-10-21 05:15:07\n\nShared By Sbyky\n[IMG]http://cdn.piczend.com/images/X3Ag13N3/1379453786_saythanks.gif[/IMG]\n[IMG]http://cdn.piczend.com/images/gGqhX2S8/1379453780_keepseeding.gif[/IMG]","torrent":{"xt":"urn:btih:01ccf78f852bafe3d781d65b79e4f699d5749df0","amp;dn":"Calvin+Harris+%26amp%3B+Alesso+Ft.+Hurts+-+Under+Control+%5BMusic+Vide","amp;tr":["udp%3A%2F%2Ftracker.openbittorrent.com%3A80","udp%3A%2F%2Fopen.demonii.com%3A1337","udp%3A%2F%2Ftracker.coppersurfer.tk%3A6969","udp%3A%2F%2Fexodus.desync.com%3A6969"],"infoHash":"01ccf78f852bafe3d781d65b79e4f699d5749df0","infoHashBuffer":{"type":"Buffer","data":[1,204,247,143,133,43,175,227,215,129,214,91,121,228,246,153,213,116,157,240]},"announce":[],"urlList":[]}}